<svg width="180" height="180" viewBox="0 0 180 180" fill="none" xmlns="http://www.w3.org/2000/svg">
<path d="M17.671 115.143C13.0673 110.54 9.67923 107.15 7.22023 104.253C4.7726 101.37 3.33377 99.0746 2.56018 96.6937C1.14661 92.3432 1.14661 87.6568 2.56018 83.3063C3.33377 80.9254 4.7726 78.6297 7.22023 75.7466C9.67922 72.85 13.0673 69.4602 17.671 64.8566L64.8566 17.671C69.4602 13.0673 72.85 9.67923 75.7466 7.22023C78.6297 4.7726 80.9254 3.33377 83.3063 2.56018C87.6568 1.14661 92.3432 1.14661 96.6937 2.56018C99.0746 3.33377 101.37 4.7726 104.253 7.22023C107.15 9.67922 110.54 13.0673 115.143 17.671L162.329 64.8566C166.933 69.4602 170.321 72.85 172.78 75.7466C175.227 78.6297 176.666 80.9254 177.44 83.3063C178.853 87.6568 178.853 92.3432 177.44 96.6937C176.666 99.0746 175.227 101.37 172.78 104.253C170.321 107.15 166.933 110.54 162.329 115.143L115.143 162.329C110.54 166.933 107.15 170.321 104.253 172.78C101.37 175.227 99.0746 176.666 96.6937 177.44C92.3432 178.853 87.6568 178.853 83.3063 177.44C80.9254 176.666 78.6297 175.227 75.7466 172.78C72.85 170.321 69.4602 166.933 64.8566 162.329L17.671 115.143Z" stroke="white" stroke-width="3"/>
</svg>
